<?xml version="1.0" encoding="UTF-8"?>
<svg width="500" height="400" viewBox="0 0 500 400" fill="none" xmlns="http://www.w3.org/2000/svg">
  <rect x="50" y="50" width="400" height="300" rx="10" fill="#1a73e8" opacity="0.1" stroke="#1a73e8" stroke-width="2"/>
  <rect x="100" y="100" width="300" height="200" rx="5" fill="white" stroke="#1a73e8" stroke-width="2"/>
  <rect x="120" y="130" width="80" height="10" rx="5" fill="#1a73e8" fill-opacity="0.3"/>
  <rect x="120" y="150" width="120" height="10" rx="5" fill="#1a73e8" fill-opacity="0.3"/>
  <rect x="120" y="170" width="100" height="10" rx="5" fill="#1a73e8" fill-opacity="0.3"/>
  <circle cx="220" cy="135" r="20" fill="#1a73e8" fill-opacity="0.3"/>
  <path d="M120 220H320V230H120V220Z" fill="#1a73e8" fill-opacity="0.3"/>
  <path d="M120 240H280V250H120V240Z" fill="#1a73e8" fill-opacity="0.3"/>
  <path d="M120 260H260V270H120V260Z" fill="#1a73e8" fill-opacity="0.3"/>
  <path d="M350 100V300" stroke="#1a73e8" stroke-width="2" stroke-dasharray="4 4"/>
  <path d="M120 80H180V90H120V80Z" fill="#1a73e8" fill-opacity="0.3"/>
  <path d="M200 80H280V90H200V80Z" fill="#1a73e8" fill-opacity="0.3"/>
</svg>
